<svg width="16" height="16" viewBox="0 0 16 16" fill="none" xmlns="http://www.w3.org/2000/svg">
<path d="M14.4666 4.66667C14.2666 4.46667 13.9999 4.46667 13.7999 4.53333C12.7999 5 11.8666 5.2 10.9333 5.4C9.86661 5.6 8.86661 5.86667 7.79994 6.4C7.59994 5.13333 6.99994 4.26667 6.46661 3.4C5.99994 2.8 5.59994 2.2 5.33328 1.46667C5.26661 1.2 4.99994 1 4.79994 1C4.59994 1 4.26661 1.2 4.19994 1.46667C3.93328 2.26667 3.53328 2.86667 3.13328 3.46667C2.46661 4.53333 1.73328 5.66667 1.73328 7.53333C1.73328 8.6 1.99994 9.6 2.59994 10.3333C2.73328 10.4667 2.86661 10.6 3.06661 10.6C3.19994 10.6 3.33328 10.5333 3.39994 10.4667C3.66661 10.2667 3.73328 9.86667 3.53328 9.6C3.13328 9.06667 2.93328 8.33333 2.93328 7.53333C2.93328 6 3.53328 5.13333 4.13328 4.13333C4.33328 3.8 4.53328 3.46667 4.73328 3.13333C4.93328 3.46667 5.13328 3.8 5.33328 4.13333C5.99994 5.06667 6.53328 5.86667 6.59994 7.2C6.39994 7.4 6.13328 7.6 5.93328 7.8C5.73328 8 5.53328 8.2 5.39994 8.4V6.33333C5.39994 6 5.13328 5.73333 4.79994 5.73333C4.46661 5.73333 4.19994 6 4.19994 6.33333V11.2V11.2667V11.3333C4.19994 11.4 4.26661 11.4667 4.26661 11.4667C4.39994 11.6 4.53328 11.7333 4.73328 11.7333C4.93328 11.7333 5.13328 11.6 5.26661 11.4667C5.33328 11.4 5.33328 11.3333 5.33328 11.2667V11.2C5.46661 10.2667 5.93328 9.4 6.73328 8.6C8.13328 7.2 9.53328 6.86667 11.1333 6.53333C11.7333 6.4 12.3333 6.26667 12.9333 6.06667C12.7333 6.66667 12.5999 7.26667 12.4666 7.86667C12.1333 9.46667 11.7999 10.8 10.3999 12.2667C8.73328 13.9333 7.13328 13.8 6.26661 13.6L10.1333 9.73333C10.3999 9.46667 10.3999 9.13333 10.1333 8.86667C9.86661 8.6 9.53328 8.6 9.26661 8.86667L4.79994 13.3333C4.59994 13.6 4.59994 13.9333 4.79994 14.2C4.86661 14.2667 4.93328 14.3333 4.99994 14.3333C5.06661 14.4 5.13328 14.4 5.19994 14.4C5.46661 14.5333 6.26661 14.8667 7.26661 14.8667C8.39994 14.8667 9.79994 14.4667 11.2666 13.0667C12.9333 11.4 13.3333 9.73333 13.6666 8.13333C13.8666 7.2 14.0666 6.2 14.5333 5.26667C14.6666 5.13333 14.5999 4.8 14.4666 4.66667Z" fill="black" fill-opacity="0.9"/>
</svg>
